<svg width="27" height="26" viewBox="0 0 27 26" fill="none" xmlns="http://www.w3.org/2000/svg">
<path fill-rule="evenodd" clip-rule="evenodd" d="M6.38635 0.0915039C6.12118 -0.0305013 5.80908 -0.0305013 5.54391 0.0915039L0.524202 2.40096C0.512246 2.40642 0.500378 2.4121 0.488634 2.41804C0.393465 2.46609 0.30958 2.5281 0.239346 2.60046C0.202595 2.63835 0.169589 2.67908 0.140662 2.72214C0.0504015 2.85654 0 3.01363 0 3.17777V19.9332C0 20.2464 0.18354 20.5352 0.480105 20.6887L10.5121 25.8811C10.5584 25.9059 10.6068 25.9271 10.6566 25.9443C10.706 25.9615 10.7567 25.9747 10.8081 25.9838C11.02 26.022 11.2473 25.9937 11.4502 25.8886L21.4966 20.6887C21.7933 20.5352 21.9768 20.2464 21.9768 19.9332V14.6912L26.4794 12.6196C26.7985 12.4729 27 12.1727 27 11.8445V6.06665C27 5.80433 26.8713 5.56003 26.6569 5.39752C26.612 5.36355 26.5634 5.33316 26.5114 5.30691C26.4997 5.30098 26.4879 5.2953 26.4759 5.28985L21.4562 2.98038C21.1909 2.85838 20.8789 2.85838 20.6138 2.98038L15.5941 5.28982C15.5821 5.29526 15.5703 5.30097 15.5584 5.30691C15.4523 5.36049 15.3603 5.43141 15.2856 5.5147C15.2273 5.57957 15.1795 5.65194 15.144 5.72948C15.1125 5.79788 15.0906 5.8703 15.0792 5.9451C15.073 5.98501 15.0698 6.02562 15.0698 6.06665V11.3376L11.9302 12.9625V3.17777C11.9302 2.96179 11.8444 2.76427 11.7024 2.61253C11.6657 2.57319 11.625 2.53679 11.5807 2.50382C11.5228 2.46074 11.4594 2.42385 11.3914 2.39421L6.38635 0.0915039ZM16.0376 12.8253L19.0267 14.2006L10.9624 18.3745L7.97329 16.9993L16.0376 12.8253ZM20.093 12.7532L16.9536 11.3089V7.46895L20.093 8.91338V12.7532ZM21.9768 12.7532L25.1164 11.3089V7.46895L21.9768 8.91338V12.7532ZM10.0466 13.9376V4.58007L6.90698 6.0245V15.5625L10.0466 13.9376ZM8.78459 19.3105L9.71776 19.7399C9.93074 19.846 10.0466 19.9175 10.0466 19.9513V23.6514L1.88372 19.4264V4.58007L5.02326 6.0245V17.044C5.02326 17.0646 5.02405 17.0853 5.02559 17.1056C5.04892 17.4096 5.24477 17.682 5.54391 17.8196C5.54391 17.8196 6.95348 18.5019 8.19224 19.0486C8.40518 19.1425 8.60324 19.2299 8.78459 19.3105ZM11.9302 19.8624L20.093 15.6374V19.4264L11.9302 23.6514V19.8624ZM5.96512 4.51991L3.04792 3.17777L5.96512 1.83563L8.88227 3.17777L5.96512 4.51991ZM23.9521 6.06665L21.035 4.72451L18.1177 6.06665L21.035 7.40879L23.9521 6.06665Z" fill="white"/>
</svg>
