<svg width="29" height="25" viewBox="0 0 29 25" fill="none" xmlns="http://www.w3.org/2000/svg">
<path d="M23.925 7.32268C22.8376 6.78563 21.8777 5.81999 21.1555 4.53649C20.3595 3.10646 19.346 1.95644 18.1924 1.1744C17.0389 0.392374 15.7759 -0.000945685 14.5 0.0245343C12.7837 -0.149757 11.0846 0.609311 9.74111 2.15058C8.39757 3.69184 7.50816 5.90221 7.25 8.34151C7.75848 7.1215 8.52376 6.16427 9.43572 5.60755C10.3477 5.05084 11.3593 4.92335 12.325 5.24344C13.4106 5.79612 14.3689 6.76738 15.0945 8.05042C15.8948 9.46903 16.9103 10.6072 18.0636 11.3782C19.2169 12.1493 20.4777 12.5329 21.75 12.5C23.4663 12.6743 25.1654 11.9152 26.5089 10.374C27.8524 8.83269 28.7418 6.62232 29 4.18302C28.5008 5.41762 27.7379 6.38932 26.8241 6.95466C25.9103 7.52 24.8939 7.64902 23.925 7.32268ZM5.075 17.6773C6.16242 18.2144 7.12228 19.18 7.8445 20.4635C8.64048 21.8935 9.65402 23.0436 10.8076 23.8256C11.9611 24.6076 13.2241 25.0009 14.5 24.9755C16.2163 25.1498 17.9154 24.3907 19.2589 22.8494C20.6024 21.3082 21.4918 19.0978 21.75 16.6585C21.2415 17.8785 20.4762 18.8357 19.5643 19.3924C18.6523 19.9492 17.6407 20.0766 16.675 19.7566C15.5894 19.2039 14.6311 18.2326 13.9055 16.9496C13.103 15.5345 12.0871 14.3988 10.9343 13.6281C9.78151 12.8574 8.5218 12.4717 7.25 12.5C5.53373 12.3257 3.83465 13.0848 2.49111 14.626C1.14757 16.1673 0.258161 18.3777 0 20.817C0.499245 19.5824 1.26209 18.6107 2.17592 18.0453C3.08975 17.48 4.10612 17.351 5.075 17.6773Z" fill="white"/>
</svg>
