<svg width="26" height="25" viewBox="0 0 26 25" fill="none" xmlns="http://www.w3.org/2000/svg">
<path d="M2.58344 12.4997C2.58275 16.3583 4.86303 19.8779 8.45441 21.5618L3.48522 8.40189C2.88952 9.6912 2.58229 11.0876 2.58344 12.4997ZM13.1831 13.3805L10.0572 22.1593C12.1558 22.7567 14.3956 22.7005 16.4593 21.9987C16.4303 21.9546 16.4054 21.9082 16.3847 21.8599L13.1831 13.3805ZM20.0322 11.9919C20.0182 11.0071 19.7209 10.0456 19.1734 9.21499C18.6136 8.53404 18.2594 7.71666 18.1501 6.85326C18.1249 5.89369 18.9068 5.09482 19.8994 5.06621C19.9456 5.06621 19.9894 5.0716 20.0343 5.07432C15.793 1.31878 9.20545 1.598 5.32047 5.69782C4.94457 6.09444 4.60225 6.51954 4.29669 6.96906C4.54114 6.97657 4.77155 6.9813 4.96701 6.9813C6.05634 6.9813 7.74335 6.85319 7.74335 6.85319C7.98078 6.83992 8.1844 7.01523 8.19814 7.24474C8.21149 7.4679 8.04005 7.66143 7.80987 7.68304C7.80987 7.68304 7.2453 7.74691 6.61786 7.77869L10.4109 18.6857L12.6908 12.077L11.0679 7.77876C10.5067 7.74697 9.9754 7.68311 9.9754 7.68311C9.73874 7.66098 9.5654 7.45757 9.58821 7.2288C9.61049 7.00614 9.81076 6.84036 10.0417 6.85326C10.0417 6.85326 11.7615 6.98137 12.7849 6.98137C13.8743 6.98137 15.5616 6.85326 15.5616 6.85326C15.7989 6.83984 16.0027 7.015 16.0166 7.24444C16.0301 7.4679 15.8584 7.66172 15.6279 7.68311C15.6279 7.68311 15.0629 7.74698 14.4359 7.77876L18.2003 18.6027L19.2748 15.3111C19.6944 14.2467 19.9496 13.1283 20.0322 11.9919ZM22.211 8.70449C22.1929 9.94512 21.9237 11.1704 21.4186 12.311L18.2371 21.203C23.1166 18.4592 24.8477 12.4578 22.1408 7.66918C22.1882 8.01233 22.2117 8.35823 22.211 8.70449ZM13 0.416809C6.09646 0.416809 0.5 5.82672 0.5 12.5001C0.5 19.1736 6.09646 24.5835 13 24.5835C19.9035 24.5835 25.5 19.1736 25.5 12.5001C25.5 5.82672 19.9035 0.416809 13 0.416809ZM17.5734 22.9661C13.9153 24.4626 9.72234 24.0686 6.43094 21.9191C4.5416 20.686 3.06264 18.9499 2.17298 16.9211C0.624513 13.3849 1.03223 9.33159 3.25635 6.15005C4.53168 4.32353 6.32764 2.89372 8.42664 2.03409C12.0847 0.537619 16.2777 0.931595 19.5691 3.08114C21.4584 4.31418 22.9374 6.05026 23.827 8.07915C25.3755 11.6153 24.9678 15.6686 22.7436 18.8502C21.4683 20.6767 19.6724 22.1065 17.5734 22.9661Z" fill="black"/>
</svg>
