<svg width="162" height="171" viewBox="0 0 162 171" fill="none" xmlns="http://www.w3.org/2000/svg">
<path d="M42.768 114H32.0625C29.268 114 27 111.606 27 108.656V62.3438C27 59.394 29.268 57 32.0625 57H42.768C52.245 57 59.9603 64.8874 59.9603 74.5845V96.4155C59.9603 106.113 52.2517 114 42.768 114ZM37.125 103.312H42.768C46.6627 103.312 49.8352 100.22 49.8352 96.4155V74.5845C49.8352 70.7798 46.6627 67.6875 42.768 67.6875H37.125V103.312ZM90.7875 113.765H67.9523C65.1578 113.765 62.8898 111.371 62.8898 108.421V62.3438C62.8898 59.394 65.1578 57 67.9523 57H90.7875C93.582 57 95.85 59.394 95.85 62.3438C95.85 65.2935 93.582 67.6875 90.7875 67.6875H73.0148V103.077H90.7875C93.582 103.077 95.85 105.471 95.85 108.421C95.85 111.371 93.582 113.765 90.7875 113.765Z" fill="white"/>
<path d="M84.2601 90.7225H67.9453C65.1508 90.7225 62.8828 88.3285 62.8828 85.3788C62.8828 82.429 65.1508 80.035 67.9453 80.035H84.2601C87.0546 80.035 89.3226 82.429 89.3226 85.3788C89.3226 88.3285 87.0546 90.7225 84.2601 90.7225ZM116.89 114C114.649 114 112.678 112.447 112.036 110.181L98.9818 63.8684C98.1853 61.0398 99.7108 58.0686 102.391 57.2208C105.077 56.3871 107.892 57.9903 108.688 60.8189L116.89 89.9103L125.084 60.8189C125.881 57.9903 128.702 56.38 131.382 57.2208C134.062 58.0615 135.587 61.0398 134.791 63.8684L121.743 110.181C121.102 112.447 119.131 114 116.89 114Z" fill="white"/>
<path d="M150.188 135.375H11.8125C5.29875 135.375 0 129.782 0 122.906V48.0938C0 41.2181 5.29875 35.625 11.8125 35.625H150.188C156.701 35.625 162 41.2181 162 48.0938V122.906C162 129.782 156.701 135.375 150.188 135.375ZM11.8125 46.3125C10.881 46.3125 10.125 47.1105 10.125 48.0938V122.906C10.125 123.889 10.881 124.688 11.8125 124.688H150.188C151.119 124.688 151.875 123.889 151.875 122.906V48.0938C151.875 47.1105 151.119 46.3125 150.188 46.3125H11.8125Z" fill="white"/>
</svg>
