<svg width="42" height="42" viewBox="0 0 42 42" fill="none" xmlns="http://www.w3.org/2000/svg">
<rect x="0.201172" y="0.622681" width="41.6006" height="41" rx="20.5" fill="black"/>
<path fill-rule="evenodd" clip-rule="evenodd" d="M16.4941 9.70011C16.3075 9.59687 16.0879 9.59687 15.9013 9.70011L12.3689 11.6543C12.3605 11.6589 12.3521 11.6637 12.3439 11.6687C12.2769 11.7094 12.2179 11.7618 12.1684 11.8231C12.1426 11.8551 12.1193 11.8896 12.099 11.926C12.0355 12.0398 12 12.1727 12 12.3116V26.4893C12 26.7542 12.1292 26.9986 12.3379 27.1285L19.3974 31.5221C19.43 31.5431 19.464 31.561 19.4991 31.5755C19.5339 31.5901 19.5695 31.6013 19.6057 31.609C19.7548 31.6413 19.9148 31.6173 20.0576 31.5284L27.1273 27.1285C27.336 26.9986 27.4652 26.7542 27.4652 26.4893V22.0537L30.6336 20.3008C30.8582 20.1766 31 19.9227 31 19.6449V14.756C31 14.534 30.9094 14.3273 30.7585 14.1898C30.727 14.1611 30.6928 14.1354 30.6561 14.1131C30.6479 14.1081 30.6396 14.1033 30.6312 14.0987L27.0988 12.1445C26.9121 12.0413 26.6925 12.0413 26.506 12.1445L22.9736 14.0987C22.9652 14.1033 22.9569 14.1081 22.9485 14.1131C22.8738 14.1585 22.8091 14.2185 22.7565 14.289C22.7155 14.3439 22.6818 14.4051 22.6569 14.4707C22.6347 14.5286 22.6193 14.5899 22.6113 14.6532C22.6069 14.6869 22.6047 14.7213 22.6047 14.756V19.2161L20.3953 20.5909V12.3116C20.3953 12.1288 20.3349 11.9617 20.235 11.8333C20.2092 11.8 20.1806 11.7692 20.1494 11.7413C20.1086 11.7048 20.064 11.6736 20.0162 11.6486L16.4941 9.70011ZM23.2857 20.4749L25.3892 21.6385L19.7143 25.1704L17.6108 24.0067L23.2857 20.4749ZM26.1395 20.4138L23.9303 19.1917V15.9426L26.1395 17.1648V20.4138ZM27.4652 20.4138L29.6745 19.1917V15.9426L27.4652 17.1648V20.4138ZM19.0698 21.4161V13.4981L16.8605 14.7203V22.7909L19.0698 21.4161ZM18.1817 25.9624L18.8384 26.3257C18.9883 26.4154 19.0698 26.4759 19.0698 26.5045V29.6354L13.3256 26.0604V13.4981L15.5349 14.7203V24.0445C15.5349 24.062 15.5354 24.0794 15.5365 24.0966C15.5529 24.3539 15.6908 24.5843 15.9013 24.7008C15.9013 24.7008 16.8932 25.2782 17.7649 25.7407C17.9148 25.8202 18.0541 25.8942 18.1817 25.9624ZM20.3953 26.4293L26.1395 22.8543V26.0604L20.3953 29.6354V26.4293ZM16.1977 13.4472L14.1448 12.3116L16.1977 11.1759L18.2505 12.3116L16.1977 13.4472ZM28.8552 14.756L26.8024 13.6203L24.7495 14.756L26.8024 15.8917L28.8552 14.756Z" fill="#747A85"/>
</svg>
