<svg width="19" height="19" viewBox="0 0 19 19" fill="none" xmlns="http://www.w3.org/2000/svg">
<path d="M15.4453 5.13994C15.4453 4.54171 14.9605 4.05868 14.3645 4.05868C13.7685 4.05868 13.2832 4.54171 13.2832 5.13994C13.2832 5.73596 13.7685 6.21899 14.3645 6.21899C14.9605 6.21899 15.4453 5.73596 15.4453 5.13994" fill="url(#paint0_linear_2179_2527)"/>
<path d="M16.8855 13.5802C16.8454 14.4577 16.6987 14.9345 16.5768 15.2512C16.4131 15.6711 16.2179 15.9713 15.9012 16.2862C15.588 16.6012 15.2878 16.796 14.8679 16.9579C14.5512 17.0815 14.0726 17.2287 13.1951 17.2706C12.2464 17.3124 11.9653 17.3213 9.55943 17.3213C7.15582 17.3213 6.87247 17.3124 5.92375 17.2706C5.04621 17.2287 4.56985 17.0815 4.25314 16.9579C3.83105 16.796 3.53305 16.6012 3.21815 16.2862C2.901 15.9713 2.70575 15.6711 2.5443 15.2512C2.4224 14.9345 2.27342 14.4577 2.23559 13.5802C2.18936 12.6315 2.18089 12.3459 2.18089 9.94497C2.18089 7.53913 2.18936 7.25578 2.23559 6.30705C2.27342 5.42951 2.4224 4.95315 2.5443 4.63377C2.70575 4.21435 2.901 3.91589 3.21815 3.60098C3.53305 3.28654 3.83105 3.09126 4.25314 2.9276C4.56985 2.8035 5.04621 2.65849 5.92375 2.6167C6.87247 2.57486 7.15582 2.56419 9.55943 2.56419C11.9653 2.56419 12.2464 2.57486 13.1951 2.6167C14.0726 2.65849 14.5512 2.8035 14.8679 2.9276C15.2878 3.09126 15.588 3.28654 15.9012 3.60098C16.2179 3.91589 16.4131 4.21435 16.5768 4.63377C16.6987 4.95315 16.8454 5.42951 16.8855 6.30705C16.9295 7.25578 16.9402 7.53913 16.9402 9.94497C16.9402 12.3459 16.9295 12.6315 16.8855 13.5802V13.5802ZM18.5058 6.23323C18.4618 5.27426 18.3106 4.61909 18.086 4.04846C17.8573 3.45644 17.5509 2.95472 17.0492 2.453C16.5497 1.95352 16.048 1.64705 15.4559 1.41578C14.8831 1.19337 14.2301 1.04036 13.2707 0.998557C12.3113 0.952289 12.0049 0.943848 9.55943 0.943848C7.11623 0.943848 6.80756 0.952289 5.84816 0.998557C4.89096 1.04036 4.23846 1.19337 3.66292 1.41578C3.07314 1.64705 2.57142 1.95352 2.07194 2.453C1.57022 2.95472 1.26375 3.45644 1.03291 4.04846C0.810505 4.61909 0.659289 5.27426 0.61302 6.23323C0.571222 7.19263 0.560547 7.49953 0.560547 9.94497C0.560547 12.3882 0.571222 12.6946 0.61302 13.654C0.659289 14.6112 0.810505 15.2659 1.03291 15.8392C1.26375 16.429 1.57022 16.933 2.07194 17.4325C2.57142 17.9319 3.07314 18.2406 3.66292 18.4715C4.23846 18.6939 4.89096 18.8451 5.84816 18.8891C6.80756 18.9332 7.11623 18.9438 9.55943 18.9438C12.0049 18.9438 12.3113 18.9332 13.2707 18.8891C14.2301 18.8451 14.8831 18.6939 15.4559 18.4715C16.048 18.2406 16.5497 17.9319 17.0492 17.4325C17.5509 16.933 17.8573 16.429 18.086 15.8392C18.3106 15.2659 18.4618 14.6112 18.5058 13.654C18.5499 12.6946 18.5605 12.3882 18.5605 9.94497C18.5605 7.49953 18.5499 7.19263 18.5058 6.23323V6.23323Z" fill="url(#paint1_linear_2179_2527)"/>
<path d="M9.55942 12.9424C7.90349 12.9424 6.55979 11.6009 6.55979 9.94494C6.55979 8.28634 7.90349 6.94311 9.55942 6.94311C11.2158 6.94311 12.5613 8.28634 12.5613 9.94494C12.5613 11.6009 11.2158 12.9424 9.55942 12.9424V12.9424ZM9.55942 5.32054C7.0068 5.32054 4.93945 7.39232 4.93945 9.94494C4.93945 12.4954 7.0068 14.5649 9.55942 14.5649C12.112 14.5649 14.1816 12.4954 14.1816 9.94494C14.1816 7.39232 12.112 5.32054 9.55942 5.32054Z" fill="url(#paint2_linear_2179_2527)"/>
<defs>
<linearGradient id="paint0_linear_2179_2527" x1="0.722954" y1="18.7577" x2="17.0614" y2="2.41936" gradientUnits="userSpaceOnUse">
<stop stop-color="#FFD521"/>
<stop offset="0.05" stop-color="#FFD521"/>
<stop offset="0.501119" stop-color="#F50000"/>
<stop offset="0.95" stop-color="#B900B4"/>
<stop offset="0.950079" stop-color="#B900B4"/>
<stop offset="1" stop-color="#B900B4"/>
</linearGradient>
<linearGradient id="paint1_linear_2179_2527" x1="0.722904" y1="18.7802" x2="17.0747" y2="2.42832" gradientUnits="userSpaceOnUse">
<stop stop-color="#FFD521"/>
<stop offset="0.05" stop-color="#FFD521"/>
<stop offset="0.501119" stop-color="#F50000"/>
<stop offset="0.95" stop-color="#B900B4"/>
<stop offset="0.950079" stop-color="#B900B4"/>
<stop offset="1" stop-color="#B900B4"/>
</linearGradient>
<linearGradient id="paint2_linear_2179_2527" x1="0.727134" y1="18.7806" x2="17.075" y2="2.43269" gradientUnits="userSpaceOnUse">
<stop stop-color="#FFD521"/>
<stop offset="0.05" stop-color="#FFD521"/>
<stop offset="0.501119" stop-color="#F50000"/>
<stop offset="0.95" stop-color="#B900B4"/>
<stop offset="0.950079" stop-color="#B900B4"/>
<stop offset="1" stop-color="#B900B4"/>
</linearGradient>
</defs>
</svg>
