<svg width="26" height="23" viewBox="0 0 26 23" fill="none" xmlns="http://www.w3.org/2000/svg">
<path d="M24.1717 0.943848H1.94944C1.18237 0.943848 0.560547 1.49106 0.560547 2.16607V21.7216C0.560547 22.3966 1.18237 22.9438 1.94944 22.9438H24.1717C24.9387 22.9438 25.5605 22.3966 25.5605 21.7216V2.16607C25.5605 1.49106 24.9387 0.943848 24.1717 0.943848Z" fill="#117EB8"/>
<path fill-rule="evenodd" clip-rule="evenodd" d="M5.12233 9.45299H8.46365V18.9136H5.12233V9.45299ZM6.79351 4.75018C7.86192 4.75018 8.72997 5.51407 8.72997 6.45427C8.72997 7.39538 7.86192 8.15957 6.79351 8.15957C6.53604 8.16386 6.28017 8.12294 6.04088 8.0392C5.80158 7.95546 5.58366 7.83057 5.39985 7.67185C5.21603 7.51313 5.07002 7.32376 4.97035 7.1148C4.87067 6.90584 4.81934 6.6815 4.81934 6.45488C4.81934 6.22826 4.87067 6.00391 4.97035 5.79495C5.07002 5.586 5.21603 5.39662 5.39985 5.2379C5.58366 5.07918 5.80158 4.9543 6.04088 4.87056C6.28017 4.78682 6.53604 4.74589 6.79351 4.75018ZM10.5595 9.45268H13.7643V10.7455H13.8088C14.255 10.0018 15.3449 9.21771 16.9703 9.21771C20.3536 9.21771 20.9786 11.1772 20.9786 13.7247V18.9136H17.6393V14.3129C17.6393 13.2159 17.6164 11.8045 15.9032 11.8045C14.1647 11.8045 13.8977 12.9996 13.8977 14.2337V18.9136H10.5591V9.45299L10.5595 9.45268Z" fill="white"/>
</svg>
