<svg width="24" height="21" viewBox="0 0 24 21" fill="none" xmlns="http://www.w3.org/2000/svg">
<g clip-path="url(#clip0_2179_2516)">
<path d="M17.2628 0.943848H6.85825C3.38013 0.943848 0.560547 3.39013 0.560547 6.40776V15.4348C0.560547 18.4525 3.38013 20.8987 6.85825 20.8987H17.2628C20.741 20.8987 23.5605 18.4525 23.5605 15.4348V6.40776C23.5605 3.39013 20.741 0.943848 17.2628 0.943848Z" fill="url(#paint0_radial_2179_2516)"/>
<path d="M11.1132 11.3079C10.8066 11.3012 10.4998 11.3163 10.196 11.353C9.75525 11.439 9.36872 11.6674 9.11493 11.9917C8.86114 12.316 8.75911 12.7119 8.82955 13.0991C8.89593 13.4903 9.13113 13.845 9.48755 14.0914C9.84397 14.3379 10.295 14.4576 10.7493 14.4264C11.1969 14.3996 11.6163 14.227 11.9235 13.9432C12.2306 13.6594 12.4028 13.2854 12.4054 12.8961C12.4054 10.525 12.4054 8.15709 12.4054 5.78596V5.53467H14.5331C14.6668 7.10361 15.7288 7.90258 17.4666 8.11199V9.91933C16.4261 9.90811 15.4143 9.62149 14.5666 9.09781C14.5666 9.18158 14.5666 9.24279 14.5666 9.304C14.5666 10.467 14.5666 11.6268 14.5666 12.7866C14.5945 13.5058 14.3566 14.2139 13.8876 14.8075C13.4186 15.401 12.7431 15.8489 11.9598 16.0856C11.2475 16.3385 10.4621 16.3932 9.71242 16.242C8.9627 16.0908 8.28567 15.7411 7.77498 15.2415C7.22743 14.7819 6.85606 14.1873 6.71125 13.5384C6.56644 12.8895 6.6552 12.2176 6.96549 11.6139C7.28016 10.9177 7.85138 10.3314 8.59018 9.94621C9.32897 9.56104 10.1939 9.39867 11.0501 9.48441L11.1281 9.50052L11.1132 11.3079Z" fill="url(#paint1_linear_2179_2516)"/>
</g>
<defs>
<radialGradient id="paint0_radial_2179_2516" cx="0" cy="0" r="1" gradientUnits="userSpaceOnUse" gradientTransform="translate(13.4939 -8.00267) scale(20.3005 17.6128)">
<stop stop-color="#1F1F1F"/>
<stop offset="0.44" stop-color="#232222"/>
<stop offset="0.82" stop-color="#2D2B2B"/>
<stop offset="1" stop-color="#353132"/>
</radialGradient>
<linearGradient id="paint1_linear_2179_2516" x1="12.0601" y1="16.3079" x2="12.0601" y2="5.53467" gradientUnits="userSpaceOnUse">
<stop stop-color="#D1D3D4"/>
<stop offset="0.15" stop-color="#DEE0E1"/>
<stop offset="0.41" stop-color="#F1F1F2"/>
<stop offset="0.69" stop-color="#FBFCFC"/>
<stop offset="1" stop-color="white"/>
</linearGradient>
<clipPath id="clip0_2179_2516">
<rect width="23" height="20" fill="white" transform="translate(0.560547 0.943848)"/>
</clipPath>
</defs>
</svg>
