<svg width="18" height="19" viewBox="0 0 18 19" fill="none" xmlns="http://www.w3.org/2000/svg">
<g clip-path="url(#clip0_2179_2522)">
<path d="M15.5226 2.76109C13.9245 0.981613 11.7995 0.0010857 9.5355 0C4.87011 0 1.07342 4.22334 1.07155 9.41443C1.071 11.0738 1.46065 12.6936 2.20125 14.1213L1.00049 19L5.48733 17.6909C6.72354 18.441 8.11543 18.8364 9.53187 18.837H9.53546H9.5355C14.2001 18.837 17.9974 14.6129 17.9994 9.42206C18.0002 6.90622 17.1205 4.54069 15.5226 2.76109ZM9.5355 17.2469H9.53276C8.27022 17.2461 7.03213 16.8689 5.95221 16.1559L5.69521 15.9864L3.03263 16.7632L3.7435 13.8756L3.57605 13.5795C2.8718 12.3335 2.50001 10.8936 2.50054 9.41504C2.50209 5.10037 5.65776 1.59019 9.53817 1.59019C11.4173 1.59106 13.1834 2.40608 14.5117 3.88513C15.8399 5.36416 16.5708 7.33034 16.5703 9.4214C16.5686 13.7362 13.4128 17.2469 9.5355 17.2469Z" fill="#E0E0E0"/>
<path d="M1.38916 18.4587L2.53507 13.8029C1.82812 12.4403 1.45634 10.8944 1.45679 9.31119C1.45864 4.35733 5.08194 0.327026 9.53383 0.327026C11.6946 0.328112 13.7225 1.2638 15.2473 2.96204C16.7724 4.66026 17.6117 6.91757 17.6109 9.31822C17.609 14.2722 13.9855 18.3029 9.53415 18.3029C9.53383 18.3029 9.53438 18.3029 9.53415 18.3029H9.53056C8.17883 18.3024 6.85062 17.9248 5.67096 17.2094L1.38916 18.4587Z" fill="url(#paint0_linear_2179_2522)"/>
<path fill-rule="evenodd" clip-rule="evenodd" d="M7.44397 5.41752C7.28738 5.03013 7.12251 5.02237 6.97354 5.0156C6.85168 5.00978 6.71219 5.01014 6.57291 5.01014C6.43352 5.01014 6.20702 5.06842 6.01547 5.3012C5.82382 5.53397 5.28369 6.09669 5.28369 7.24116C5.28369 8.38575 6.0329 9.49169 6.13733 9.64702C6.24187 9.80212 7.58358 12.2258 9.70846 13.1582C11.4744 13.9331 11.8338 13.779 12.2171 13.7402C12.6004 13.7014 13.4539 13.1776 13.6282 12.6344C13.8024 12.0913 13.8024 11.6258 13.7501 11.5284C13.6979 11.4315 13.5585 11.3733 13.3494 11.257C13.1403 11.1407 12.1126 10.5779 11.9209 10.5003C11.7293 10.4228 11.5899 10.384 11.4505 10.6169C11.3111 10.8495 10.9107 11.3733 10.7887 11.5284C10.6667 11.6839 10.5448 11.7033 10.3357 11.587C10.1266 11.4703 9.45331 11.2249 8.65457 10.4324C8.0331 9.81591 7.61352 9.05446 7.49155 8.82158C7.36959 8.58893 7.47848 8.46291 7.58335 8.34694C7.67722 8.24273 7.79243 8.07539 7.89697 7.93956C8.00129 7.80372 8.03614 7.70678 8.10583 7.55168C8.17553 7.39633 8.14068 7.26051 8.08841 7.14419C8.03614 7.02786 7.62985 5.87749 7.44397 5.41752Z" fill="white"/>
<path d="M15.4536 2.73123C13.8738 0.972183 11.7732 0.00293226 9.5352 0.00183105C4.92334 0.00183105 1.17024 4.17669 1.16838 9.30819C1.16784 10.9485 1.55301 12.5497 2.28511 13.9611L1.09814 18.7837L5.53348 17.4896C6.75551 18.2312 8.13142 18.6219 9.5316 18.6225H9.53516H9.5352C14.1463 18.6225 17.8999 14.447 17.9019 9.31569C17.9027 6.82877 17.0331 4.49041 15.4536 2.73123ZM9.5352 17.0507H9.53248C8.28442 17.05 7.06053 16.6771 5.99303 15.9723L5.73896 15.8047L3.10695 16.5726L3.80965 13.7181L3.64413 13.4255C2.94796 12.1938 2.58044 10.7704 2.58099 9.30881C2.5825 5.04368 5.70194 1.5738 9.53782 1.5738C11.3954 1.57465 13.1412 2.38032 14.4543 3.84239C15.7672 5.30445 16.4897 7.24804 16.4892 9.31512C16.4876 13.5804 13.368 17.0507 9.5352 17.0507Z" fill="white"/>
</g>
<defs>
<linearGradient id="paint0_linear_2179_2522" x1="9.50002" y1="18.4587" x2="9.50002" y2="0.327057" gradientUnits="userSpaceOnUse">
<stop stop-color="#20B038"/>
<stop offset="1" stop-color="#60D66A"/>
</linearGradient>
<clipPath id="clip0_2179_2522">
<rect width="17" height="19" fill="white" transform="translate(1)"/>
</clipPath>
</defs>
</svg>
