<svg width="17" height="19" viewBox="0 0 17 19" fill="none" xmlns="http://www.w3.org/2000/svg">
<g clip-path="url(#clip0_2204_2605)">
<path d="M14.5231 2.76109C12.925 0.981612 10.8 0.0010857 8.53599 0C3.8706 0 0.0739039 4.22334 0.0720361 9.41443C0.0714925 11.0738 0.461135 12.6936 1.20174 14.1213L0.000976562 19L4.48782 17.6909C5.72403 18.4411 7.11592 18.8364 8.53235 18.837H8.53595H8.53599C13.2006 18.837 16.9979 14.6129 16.9999 9.42206C17.0007 6.90622 16.121 4.54069 14.5231 2.76109ZM8.53599 17.2469H8.53325C7.27071 17.2461 6.03262 16.8689 4.9527 16.1559L4.6957 15.9864L2.03311 16.7632L2.74399 13.8756L2.57654 13.5795C1.87229 12.3335 1.5005 10.8936 1.50103 9.41504C1.50258 5.10037 4.65825 1.59019 8.53865 1.59019C10.4178 1.59106 12.1839 2.40608 13.5122 3.88513C14.8404 5.36417 15.5713 7.33034 15.5708 9.4214C15.5691 13.7362 12.4133 17.2469 8.53599 17.2469Z" fill="#E0E0E0"/>
<path d="M0.388672 18.4587L1.53459 13.8029C0.827629 12.4403 0.455856 10.8944 0.456302 9.31119C0.458156 4.35733 4.08145 0.327026 8.53335 0.327026C10.6941 0.328112 12.722 1.2638 14.2468 2.96204C15.7719 4.66026 16.6113 6.91757 16.6104 9.31822C16.6085 14.2722 12.985 18.3029 8.53367 18.3029C8.53389 18.3029 8.53335 18.3029 8.53367 18.3029H8.53007C7.17834 18.3024 5.85013 17.9248 4.67047 17.2094L0.388672 18.4587Z" fill="url(#paint0_linear_2204_2605)"/>
<path fill-rule="evenodd" clip-rule="evenodd" d="M6.44446 5.41752C6.28787 5.03013 6.123 5.02237 5.97402 5.0156C5.85217 5.00978 5.71267 5.01014 5.5734 5.01014C5.43401 5.01014 5.20751 5.06842 5.01596 5.3012C4.8243 5.53397 4.28418 6.09669 4.28418 7.24116C4.28418 8.38575 5.03338 9.49169 5.13781 9.64702C5.24235 9.80212 6.58407 12.2258 8.70895 13.1582C10.4749 13.9331 10.8343 13.779 11.2176 13.7402C11.6009 13.7014 12.4544 13.1776 12.6287 12.6344C12.8029 12.0913 12.8029 11.6258 12.7506 11.5284C12.6984 11.4315 12.559 11.3733 12.3499 11.257C12.1408 11.1407 11.1131 10.5779 10.9214 10.5003C10.7297 10.4228 10.5904 10.384 10.451 10.6169C10.3116 10.8495 9.91116 11.3733 9.7892 11.5284C9.66724 11.6839 9.54527 11.7033 9.33619 11.587C9.12711 11.4703 8.4538 11.2249 7.65506 10.4324C7.03359 9.81591 6.61401 9.05446 6.49204 8.82158C6.37008 8.58893 6.47897 8.46291 6.58384 8.34694C6.67771 8.24273 6.79292 8.07539 6.89746 7.93956C7.00178 7.80372 7.03663 7.70678 7.10632 7.55168C7.17601 7.39633 7.14117 7.26051 7.0889 7.14419C7.03663 7.02786 6.63034 5.87749 6.44446 5.41752Z" fill="white"/>
<path d="M14.4531 2.73123C12.8733 0.972183 10.7727 0.00293226 8.53471 0.00183105C3.92285 0.00183105 0.169747 4.17669 0.167893 9.30819C0.16735 10.9485 0.552518 12.5497 1.28462 13.9611L0.0976562 18.7837L4.53299 17.4896C5.75503 18.2312 7.13093 18.6219 8.53111 18.6225H8.53467H8.53471C13.1458 18.6225 16.8994 14.447 16.9014 9.31569C16.9022 6.82877 16.0326 4.49041 14.4531 2.73123ZM8.53471 17.0507H8.53199C7.28393 17.05 6.06005 16.6771 4.99254 15.9723L4.73848 15.8047L2.10646 16.5726L2.80917 13.7181L2.64364 13.4255C1.94748 12.1938 1.57995 10.7704 1.5805 9.30881C1.58202 5.04368 4.70145 1.5738 8.53733 1.5738C10.3949 1.57465 12.1407 2.38032 13.4538 3.84239C14.7667 5.30445 15.4893 7.24804 15.4887 9.31512C15.4871 13.5804 12.3675 17.0507 8.53471 17.0507Z" fill="white"/>
</g>
<defs>
<linearGradient id="paint0_linear_2204_2605" x1="8.49953" y1="18.4587" x2="8.49953" y2="0.327057" gradientUnits="userSpaceOnUse">
<stop stop-color="#20B038"/>
<stop offset="1" stop-color="#60D66A"/>
</linearGradient>
<clipPath id="clip0_2204_2605">
<rect width="17" height="19" fill="white"/>
</clipPath>
</defs>
</svg>
